<svg width="28" height="28" viewBox="0 0 28 28" fill="none" xmlns="http://www.w3.org/2000/svg">
<g clip-path="url(#clip0_117_483)">
<path d="M26.2003 7.18397C26.3124 7.18397 26.4199 7.13945 26.4991 7.0602C26.5784 6.98095 26.6229 6.87346 26.6229 6.76139V5.07104C26.6229 4.95897 26.5784 4.85148 26.4991 4.77223C26.4199 4.69298 26.3124 4.64846 26.2003 4.64846H25.4819L19.2509 0.493602C19.1814 0.44743 19.0998 0.422739 19.0164 0.422607H8.02914C7.94569 0.422739 7.86412 0.44743 7.79461 0.493602L1.56359 4.64846H0.845193C0.733116 4.64846 0.62563 4.69298 0.54638 4.77223C0.46713 4.85148 0.422607 4.95897 0.422607 5.07104V6.76139C0.422607 6.87346 0.46713 6.98095 0.54638 7.0602C0.62563 7.13945 0.733116 7.18397 0.845193 7.18397H1.26778V17.1363C1.01149 17.2838 0.798496 17.4961 0.650155 17.7519C0.501814 18.0077 0.423342 18.2981 0.422607 18.5938C0.422607 18.93 0.556174 19.2525 0.793924 19.4902C1.03167 19.728 1.35413 19.8615 1.69036 19.8615H5.07104C5.40727 19.8615 5.72973 19.728 5.96748 19.4902C6.20523 19.2525 6.3388 18.93 6.3388 18.5938C6.33835 18.4511 6.3196 18.3091 6.28302 18.1712H6.76139V19.4389C6.76139 19.551 6.80591 19.6585 6.88516 19.7378C6.96441 19.817 7.07189 19.8615 7.18397 19.8615H8.87431C8.98639 19.8615 9.09387 19.817 9.17313 19.7378C9.25237 19.6585 9.2969 19.551 9.2969 19.4389V18.1712H10.7857L9.34888 21.7674C3.52354 22.4034 0.422607 24.349 0.422607 26.2003C0.422607 26.3124 0.46713 26.4199 0.54638 26.4991C0.62563 26.5784 0.733116 26.6229 0.845193 26.6229H5.91622C6.02829 26.6229 6.13578 26.5784 6.21503 26.4991C6.29428 26.4199 6.3388 26.3124 6.3388 26.2003C6.3388 25.3179 9.07166 24.0874 13.5227 24.0874C17.9738 24.0874 20.7067 25.3179 20.7067 26.2003C20.7067 26.3124 20.7512 26.4199 20.8305 26.4991C20.9097 26.5784 21.0172 26.6229 21.1293 26.6229H26.2003C26.3124 26.6229 26.4199 26.5784 26.4991 26.4991C26.5784 26.4199 26.6229 26.3124 26.6229 26.2003C26.6229 24.349 23.522 22.4034 17.6983 21.7674L16.2598 18.1712H17.7486V19.4389C17.7486 19.551 17.7931 19.6585 17.8724 19.7378C17.9516 19.817 18.0591 19.8615 18.1712 19.8615H19.8615C19.9736 19.8615 20.0811 19.817 20.1603 19.7378C20.2396 19.6585 20.2841 19.551 20.2841 19.4389V18.1712H20.7625C20.7259 18.3091 20.7072 18.4511 20.7067 18.5938C20.7067 18.93 20.8403 19.2525 21.078 19.4902C21.3158 19.728 21.6382 19.8615 21.9745 19.8615H25.3551C25.6914 19.8615 26.0138 19.728 26.2516 19.4902C26.4893 19.2525 26.6229 18.93 26.6229 18.5938C26.6222 18.2981 26.5437 18.0077 26.3953 17.7519C26.247 17.4961 26.034 17.2838 25.7777 17.1363V7.18397H26.2003ZM25.7777 6.3388H18.8473L17.6949 5.49363H25.7777V6.3388ZM7.60656 8.87431V8.02914H19.4389V8.87431H7.60656ZM13.5227 3.48212L18.5705 7.18397H16.6165L13.7683 5.14965C13.6966 5.0985 13.6108 5.071 13.5227 5.071C13.4347 5.071 13.3489 5.0985 13.2772 5.14965L10.429 7.18397H8.47497L13.5227 3.48212ZM15.162 7.18397H11.8835L13.5227 6.01299L15.162 7.18397ZM8.15592 1.26778H18.8896L23.9606 4.64846H16.5425L13.7725 2.61709C13.7 2.56401 13.6126 2.53539 13.5227 2.53539C13.4329 2.53539 13.3455 2.56401 13.273 2.61709L10.503 4.64846H3.08489L8.15592 1.26778ZM1.26778 5.49363H9.35057L8.19818 6.3388H1.26778V5.49363ZM5.07104 19.0164H1.69036C1.57829 19.0164 1.4708 18.9718 1.39155 18.8926C1.3123 18.8133 1.26778 18.7058 1.26778 18.5938C1.26775 18.3718 1.35505 18.1587 1.51082 18.0006C1.66659 17.8424 1.87832 17.7519 2.10027 17.7486C2.11126 17.7486 2.15605 17.7554 2.16662 17.7558C2.23672 17.7611 2.30702 17.7484 2.37079 17.7188C2.43456 17.6892 2.48968 17.6437 2.53088 17.5868C2.57285 17.5306 2.6002 17.4649 2.61045 17.3956C2.6207 17.3262 2.61355 17.2554 2.58962 17.1895C2.54648 17.0828 2.52843 16.9676 2.53686 16.8528C2.54528 16.738 2.57996 16.6266 2.63822 16.5273C2.69554 16.4165 2.77567 16.3191 2.87334 16.2414C2.97101 16.1638 3.08401 16.1077 3.20491 16.0769C3.40977 16.0319 3.62409 16.0676 3.80329 16.1766C3.86783 16.2141 3.94117 16.2339 4.01585 16.2339C4.09053 16.2339 4.16387 16.2141 4.22841 16.1766C4.41064 16.0656 4.62932 16.031 4.83693 16.0802C4.99551 16.1188 5.13996 16.2014 5.25367 16.3185C5.36738 16.4356 5.44572 16.5824 5.47968 16.742C5.50458 16.8703 5.499 17.0026 5.4634 17.1284C5.4278 17.2541 5.36318 17.3697 5.27473 17.4659C5.20489 17.5435 5.16624 17.6442 5.16624 17.7486C5.16624 17.853 5.20489 17.9537 5.27473 18.0313C5.41517 18.185 5.49322 18.3856 5.49363 18.5938C5.49363 18.7058 5.44911 18.8133 5.36986 18.8926C5.29061 18.9718 5.18312 19.0164 5.07104 19.0164ZM6.2771 17.326C6.34258 17.0849 6.35355 16.8323 6.30922 16.5865C6.24536 16.2654 6.09081 15.9694 5.86387 15.7335C5.63693 15.4976 5.34713 15.3316 5.02879 15.2553C4.69032 15.1751 4.33508 15.2047 4.01458 15.3399C3.70189 15.2089 3.35638 15.1778 3.02531 15.2507C2.66869 15.3341 2.34864 15.5307 2.11295 15.811V7.18397H7.04536L6.93422 7.26553C6.88064 7.30479 6.83706 7.35613 6.80703 7.41538C6.777 7.47463 6.76136 7.54013 6.76139 7.60656V17.326H6.2771ZM7.60656 19.0164V9.71948H8.45173V19.0164H7.60656ZM16.0583 17.326H15.2131V13.9453C15.2131 13.497 15.035 13.0671 14.718 12.7501C14.401 12.4331 13.9711 12.255 13.5227 12.255C13.0744 12.255 12.6445 12.4331 12.3275 12.7501C12.0105 13.0671 11.8324 13.497 11.8324 13.9453V17.326H10.9872V13.9453C10.9872 13.2729 11.2544 12.628 11.7299 12.1525C12.2054 11.677 12.8503 11.4098 13.5227 11.4098C14.1952 11.4098 14.8401 11.677 15.3156 12.1525C15.7911 12.628 16.0583 13.2729 16.0583 13.9453V17.326ZM14.3679 17.326H12.6776V13.9453C12.6776 13.7212 12.7666 13.5062 12.9251 13.3477C13.0836 13.1892 13.2986 13.1002 13.5227 13.1002C13.7469 13.1002 13.9619 13.1892 14.1204 13.3477C14.2789 13.5062 14.3679 13.7212 14.3679 13.9453V17.326ZM25.6877 25.7777H21.4821C20.9248 24.1296 17.1194 23.2422 13.5227 23.2422C9.92613 23.2422 6.12075 24.1296 5.56336 25.7777H1.35779C2.06435 24.1017 6.86281 22.397 13.5227 22.397C20.1827 22.397 24.9811 24.1017 25.6877 25.7777ZM16.7521 21.6786C15.7472 21.5971 14.6722 21.5519 13.5227 21.5519C12.3733 21.5519 11.2983 21.5971 10.2934 21.6786L11.6959 18.1712H15.3496L16.7521 21.6786ZM16.9034 17.326V13.9453C16.9034 13.0487 16.5473 12.1888 15.9133 11.5548C15.2793 10.9208 14.4194 10.5647 13.5227 10.5647C12.6261 10.5647 11.7662 10.9208 11.1322 11.5548C10.4982 12.1888 10.1421 13.0487 10.1421 13.9453V17.326H9.2969V9.71948H17.7486V17.326H16.9034ZM18.5938 19.0164V9.71948H19.4389V19.0164H18.5938ZM25.3551 19.0164H21.9745C21.8624 19.0164 21.7549 18.9718 21.6756 18.8926C21.5964 18.8133 21.5519 18.7058 21.5519 18.5938C21.5526 18.3854 21.6311 18.1848 21.772 18.0313C21.8419 17.9537 21.8805 17.853 21.8805 17.7486C21.8805 17.6442 21.8419 17.5435 21.772 17.4659C21.6836 17.3697 21.619 17.2541 21.5834 17.1284C21.5478 17.0026 21.5422 16.8703 21.5671 16.742C21.601 16.5824 21.6794 16.4356 21.7931 16.3185C21.9068 16.2014 22.0513 16.1188 22.2098 16.0802C22.2712 16.0657 22.334 16.0583 22.397 16.0583C22.546 16.0591 22.6919 16.1 22.8196 16.1766C22.8842 16.2141 22.9575 16.2339 23.0322 16.2339C23.1069 16.2339 23.1802 16.2141 23.2447 16.1766C23.4234 16.0678 23.6372 16.0322 23.8414 16.0773C23.9623 16.1081 24.0753 16.1642 24.173 16.2418C24.2707 16.3195 24.3508 16.4169 24.4081 16.5278C24.4664 16.627 24.5011 16.7384 24.5095 16.8532C24.5179 16.968 24.4999 17.0832 24.4567 17.1899C24.4328 17.2558 24.4256 17.3266 24.4359 17.396C24.4461 17.4653 24.4735 17.531 24.5155 17.5872C24.5567 17.6441 24.6118 17.6895 24.6756 17.7191C24.7393 17.7487 24.8096 17.7615 24.8797 17.7562C24.8903 17.7562 24.922 17.7503 24.9338 17.749C25.158 17.749 25.3729 17.8381 25.5314 17.9966C25.6899 18.1551 25.779 18.37 25.779 18.5942C25.7789 18.6498 25.7679 18.7048 25.7466 18.7561C25.7252 18.8074 25.694 18.854 25.6546 18.8932C25.6152 18.9324 25.5685 18.9635 25.5171 18.9846C25.4658 19.0057 25.4107 19.0165 25.3551 19.0164ZM24.9326 15.811C24.6967 15.531 24.3767 15.3348 24.0202 15.2515C23.6892 15.1779 23.3436 15.2088 23.0309 15.3399C22.7105 15.2045 22.3552 15.1748 22.0167 15.2553C21.6984 15.3316 21.4086 15.4976 21.1816 15.7335C20.9547 15.9694 20.8001 16.2654 20.7363 16.5865C20.6919 16.8323 20.7029 17.0849 20.7684 17.326H20.2841V7.60656C20.2841 7.54013 20.2685 7.47463 20.2385 7.41538C20.2084 7.35613 20.1649 7.30479 20.1113 7.26553L20.0001 7.18397H24.9326V15.811Z" fill="#373737"/>
<path d="M4.22601 8.02905C3.88978 8.02905 3.56732 8.16262 3.32957 8.40037C3.09182 8.63812 2.95825 8.96058 2.95825 9.29681V11.8323C2.95825 11.9444 3.00277 12.0519 3.08202 12.1311C3.16127 12.2104 3.26876 12.2549 3.38084 12.2549H5.07118C5.18325 12.2549 5.29074 12.2104 5.36999 12.1311C5.44924 12.0519 5.49376 11.9444 5.49376 11.8323V9.29681C5.49376 8.96058 5.3602 8.63812 5.12245 8.40037C4.8847 8.16262 4.56224 8.02905 4.22601 8.02905ZM4.64859 11.4097H3.80342V9.29681C3.80342 9.18473 3.84794 9.07725 3.92719 8.998C4.00644 8.91875 4.11393 8.87422 4.22601 8.87422C4.33808 8.87422 4.44557 8.91875 4.52482 8.998C4.60407 9.07725 4.64859 9.18473 4.64859 9.29681V11.4097Z" fill="#373737"/>
<path d="M21.9746 12.2549H23.6649C23.777 12.2549 23.8845 12.2104 23.9637 12.1311C24.043 12.0519 24.0875 11.9444 24.0875 11.8323V9.29681C24.0875 8.96058 23.9539 8.63812 23.7162 8.40037C23.4784 8.16262 23.156 8.02905 22.8198 8.02905C22.4835 8.02905 22.1611 8.16262 21.9233 8.40037C21.6856 8.63812 21.552 8.96058 21.552 9.29681V11.8323C21.552 11.9444 21.5965 12.0519 21.6758 12.1311C21.755 12.2104 21.8625 12.2549 21.9746 12.2549ZM22.3972 9.29681C22.3972 9.18473 22.4417 9.07725 22.5209 8.998C22.6002 8.91875 22.7077 8.87422 22.8198 8.87422C22.9318 8.87422 23.0393 8.91875 23.1186 8.998C23.1978 9.07725 23.2423 9.18473 23.2423 9.29681V11.4097H22.3972V9.29681Z" fill="#373737"/>
</g>
<defs>
<clipPath id="clip0_117_483">
<rect width="27.0455" height="27.0455" fill="white"/>
</clipPath>
</defs>
</svg>
